<svg xmlns="http://www.w3.org/2000/svg" xmlns:xlink="http://www.w3.org/1999/xlink" xmlns:inkscape="http://www.inkscape.org/namespaces/inkscape" version="1.1" width="792" height="216" viewBox="0 0 792 216">
<path transform="matrix(1,0,0,-1,0,216)" stroke-width=".216" stroke-linecap="butt" stroke-miterlimit="10" stroke-linejoin="miter" fill="none" stroke="#1f1a17" d="M0 216H792V0H0Z"/>
<path transform="matrix(1,0,0,-1,0,216)" d="M648.275 183.5368 603.8311 120.4773V65.8256H577.5265V120.5889L533.1645 183.5368H566.0178L590.6784 148.2233 615.3395 183.5368Z" fill="#1a1a1a"/>
<path transform="matrix(1,0,0,-1,0,216)" d="M526.5609 65.8256H485.4597C469.5673 65.8256 456.0041 71.5711 444.7701 83.0619 433.5355 94.5524 427.9184 108.4255 427.9184 124.6808 427.9184 140.9366 433.5355 154.8094 444.7701 166.3002 456.0041 177.7912 469.5673 183.5368 485.4597 183.5368H526.5609V156.6315H485.4597C476.8013 156.6315 469.4306 153.5202 463.3472 147.2981 457.2646 141.0766 454.2231 133.5373 454.2231 124.6808 454.2231 115.8248 457.2646 108.2857 463.3472 102.0637 469.4306 95.8419 476.8013 92.7309 485.4597 92.7309H526.5609Z" fill="#1a1a1a"/>
<path transform="matrix(1,0,0,-1,0,216)" d="M437.1253 65.8256H369.7194L358.2111 92.7309H395.8597L375.4735 139.8713 343.4148 65.8256H313.8219V92.7309H325.4944L364.7871 183.5368H386.1598Z" fill="#1a1a1a"/>
<path transform="matrix(1,0,0,-1,0,216)" d="M208.0854 65.5673H249.1869C265.0793 65.5673 278.6426 71.2638 289.8765 82.6566 300.6785 93.6105 306.2854 106.7485 306.7013 122.0695H306.7155V122.6653C306.7231 123.082 306.7282 123.5001 306.7282 123.9199 306.7282 124.3281 306.7231 124.7332 306.7155 125.1377V183.2814H280.4105C280.4105 163.1792 280.4105 143.0762 280.4105 122.9757 280.1996 114.6025 277.1631 107.443 271.2991 101.4959 265.216 95.3274 257.8453 92.2428 249.1869 92.2428H208.0854Z" fill="#1a1a1a"/>
<path transform="matrix(1,0,0,-1,0,216)" d="M90.057 93.5529C86.688 100.9735 84.812 109.2146 84.812 117.8935 84.812 126.5964 86.7002 134.8594 90.0856 142.2967 91.463 140.6503 93.5235 139.5955 95.8317 139.5717V139.57H114.5302C115.8565 139.57 116.8466 139.57 118.0732 139.57H136.2033C136.2033 132.4174 136.1214 125.1017 136.2056 118.1432 136.2047 118.0602 136.2022 117.9771 136.2022 117.8938V117.8935L136.2044 117.7265C136.1137 105.8805 126.3966 96.2172 114.5302 96.2172H95.8317V96.2169C93.5195 96.2169 91.4496 95.1837 90.057 93.5529" fill="#366e70" fill-rule="evenodd"/>
<path transform="matrix(1,0,0,-1,0,216)" d="M197.5079 142.2967C200.8945 134.86 202.7815 126.5964 202.7815 117.8935 202.7815 109.2146 200.9041 100.9743 197.5365 93.5529 196.1439 95.1837 194.0743 96.2169 191.7621 96.2169V96.2172H173.0633C161.1961 96.2172 151.4786 105.8825 151.3896 117.7296L151.3916 117.8935V117.8938L151.3899 118.0791V118.0851 118.0911 118.097 118.103 118.1089C151.507 129.9331 161.2131 139.57 173.0633 139.57H191.7621V139.5717C194.0703 139.5955 196.1308 140.6503 197.5079 142.2967" fill="#366e70" fill-rule="evenodd"/>
<path transform="matrix(1,0,0,-1,0,216)" d="M143.7968 176.8782C162.4209 176.8782 179.0283 168.2402 189.8391 154.7546H173.0631C164.8757 154.7546 157.2908 152.0495 151.1561 147.4889 151.0639 147.4067 151.0807 147.073 151.0826 146.9271L151.1447 144.0746 151.0577 142.0387 150.8494 140.082 150.5302 138.2026 150.1138 136.3952 149.6103 134.6567 149.0335 132.9831 148.3954 131.3711 147.7089 129.8134 146.9849 128.306 146.236 126.8436 145.4734 125.4214 144.7095 124.033 143.9544 122.6744 143.2193 121.3401 142.5149 120.026 141.8525 118.726 141.2405 117.4368 140.6897 116.1536 140.2081 114.8729 139.8056 113.5871 139.4881 112.2928 139.265 110.9815 139.1426 109.6469 139.1312 108.2775 139.2386 106.8639 139.4773 105.3964 139.8586 103.866 140.3963 102.2632 141.1027 100.5817 141.9931 98.8157 142.9486 97.1807C148.9028 86.9879 161.4628 81.0326 173.0631 81.0326H189.8376C179.0271 67.5476 162.4204 58.9088 143.7968 58.9088 125.1731 58.9088 108.5666 67.5479 97.7559 81.0326H114.5307C125.176 81.0326 134.803 85.6086 141.5475 92.8882L141.0902 93.67 140.6288 94.46 139.0258 97.2034 138.0368 99.1672 137.2371 101.071 136.6163 102.92 136.1693 104.7166 135.885 106.4642 135.7554 108.1633 135.7693 109.8156 135.9164 111.42 136.1823 112.9791 136.5534 114.4945 137.0166 115.9716 137.5586 117.4136 138.1649 118.8264 138.8242 120.2159 139.5244 121.589 140.254 122.9511 141.0015 124.3086 141.7569 125.6666 142.5081 127.0321 143.2468 128.4097 143.962 129.8058 144.6435 131.2243 145.2815 132.673 145.8683 134.155 146.3927 135.6763 146.8463 137.2439 147.2196 138.8642 147.505 140.5437 147.691 142.289 147.7678 144.1091 147.6955 147.4089C147.6054 151.4469 142.2811 154.7546 140.1766 154.7546 138.0722 154.7546 139.8784 154.7504 139.7307 154.7413L139.7163 154.7546H114.5307 111.0433 97.7547C108.5649 168.2402 125.1726 176.8782 143.7968 176.8782" fill="#006bb0" fill-rule="evenodd"/>
<path transform="matrix(1,0,0,-1,0,216)" d="M366.5707 47.3386C365.6744 48.1031 364.7231 48.6765 363.7267 49.0586 362.7255 49.441 361.6741 49.6321 360.5729 49.6321 358.4387 49.6321 356.705 48.9495 355.3671 47.5798 354.0291 46.2101 353.3601 44.4353 353.3601 42.26 353.3601 40.153 354.011 38.4148 355.3123 37.0451 356.614 35.6754 358.2567 34.9929 360.2409 34.9929 361.3921 34.9929 362.4934 35.1975 363.5399 35.6071 364.5822 36.0167 365.5834 36.631 366.5435 37.4593V33.8732C365.6925 33.2589 364.7597 32.8039 363.7585 32.5035 362.7527 32.1987 361.6651 32.0485 360.491 32.0485 358.9985 32.0485 357.6197 32.2943 356.3501 32.7813 355.085 33.2725 353.9701 33.9917 353.0098 34.9427 352.0587 35.8756 351.3305 36.9768 350.8163 38.2419 350.3066 39.507 350.0518 40.8586 350.0518 42.2875 350.0518 43.721 350.3066 45.0632 350.8163 46.3192 351.3305 47.5798 352.0678 48.6811 353.0373 49.6321 354.0064 50.5925 355.1168 51.3204 356.3728 51.8119 357.6243 52.308 358.9804 52.5538 360.4365 52.5538 361.5831 52.5538 362.6753 52.3854 363.7176 52.0532 364.7551 51.7209 365.7654 51.2158 366.7436 50.5423Z" fill="#1f1a17"/>
<path transform="matrix(1,0,0,-1,0,216)" d="M373.6933 32.5672V52.0849H384.5877V49.3909H376.8653V44.4991H384.5877V41.7141H376.8653V35.4067H384.5877V32.5672Z" fill="#1f1a17"/>
<path transform="matrix(1,0,0,-1,0,216)" d="M391.4144 32.5672V52.0849H394.5864V35.4067H401.6806V32.5672Z" fill="#1f1a17"/>
<path transform="matrix(1,0,0,-1,0,216)" d="M407.4426 32.5672V52.0849H418.337V49.3909H410.6146V44.4991H418.337V41.7141H410.6146V35.4067H418.337V32.5672Z" fill="#1f1a17"/>
<path transform="matrix(1,0,0,-1,0,216)" d="M428.2719 43.8437H429.4823C430.9931 43.8437 432.0626 44.0484 432.6905 44.4626 433.3141 44.8767 433.6279 45.5729 433.6279 46.5514 433.6279 47.6161 433.3414 48.367 432.7634 48.7993 432.1854 49.2318 431.0932 49.4456 429.4823 49.4456H428.2719ZM428.2719 35.2202H429.3641C430.4744 35.2202 431.3072 35.2658 431.8577 35.3523 432.4085 35.4433 432.8408 35.598 433.1639 35.8209 433.5551 36.0757 433.8556 36.4263 434.0693 36.8586 434.2833 37.2954 434.3879 37.7731 434.3879 38.3012 434.3879 38.92 434.2606 39.4659 434.0013 39.9257 433.7419 40.3897 433.3731 40.7492 432.8955 41.004 432.595 41.1588 432.2492 41.2682 431.8622 41.3408 431.4756 41.4091 430.9614 41.4456 430.3242 41.4456H429.3641 428.2719ZM425.1637 32.5672V52.0849H430.0829C431.4892 52.0849 432.5267 52.0075 433.1957 51.8573 433.8646 51.7073 434.4381 51.457 434.9066 51.1112 435.5118 50.665 435.9807 50.0828 436.3129 49.3637 436.6451 48.6448 436.8135 47.8483 436.8135 46.9791 436.8135 45.9371 436.5723 45.0677 436.0944 44.3716 435.6122 43.6754 434.9157 43.1884 434.0013 42.9109 435.1388 42.7334 436.0354 42.2147 436.6905 41.3592 437.3413 40.4991 437.669 39.4206 437.669 38.1144 437.669 37.3226 437.5324 36.5717 437.2549 35.862 436.9819 35.1473 436.5904 34.5421 436.0808 34.0461 435.5484 33.5047 434.8885 33.1226 434.0968 32.8995 433.3048 32.6764 431.9762 32.5672 430.1104 32.5672Z" fill="#1f1a17"/>
<path transform="matrix(1,0,0,-1,0,216)" d="M447.2583 43.7664H447.8318C449.5107 43.7664 450.6259 43.962 451.1764 44.3534 451.7271 44.7449 452.0047 45.4365 452.0047 46.4332 452.0047 47.507 451.7087 48.2624 451.1171 48.7037 450.5255 49.1454 449.4288 49.3637 447.8318 49.3637H447.2583ZM447.0579 41.2999V32.5672H444.0864V52.0849H448.5098C449.8067 52.0849 450.8169 51.9985 451.5313 51.8301 452.2459 51.6617 452.8556 51.3842 453.3653 50.9927 453.9705 50.5196 454.4345 49.9099 454.7667 49.1635 455.0944 48.4172 455.2583 47.6025 455.2583 46.7107 455.2583 45.1497 454.8807 43.9257 454.1253 43.0381 453.3698 42.1554 452.2504 41.6231 450.7758 41.4456L457.4974 32.5672H453.9112L447.4176 41.2999Z" fill="#1f1a17"/>
<path transform="matrix(1,0,0,-1,0,216)" d="M466.6859 40.235H472.1238L470.1263 44.6856C470.0123 44.9722 469.8896 45.2999 469.7666 45.6687 469.6438 46.0372 469.5163 46.4468 469.3935 46.9018 469.2844 46.474 469.175 46.0735 469.0522 45.705 468.9337 45.3365 468.811 44.9997 468.6883 44.6856ZM475.4594 32.5672 473.2432 37.5956H465.5163L463.25 32.5672H459.9145L469.3663 52.8585 478.8043 32.5672Z" fill="#1f1a17"/>
<path transform="matrix(1,0,0,-1,0,216)" d="M488.6527 49.3909V32.5672H485.4807V49.3909H480.293V52.0849H493.8131V49.3909Z" fill="#1f1a17"/>
<path transform="matrix(1,0,0,-1,0,216)" d="M499.4294 32.5672V52.0849H510.3238V49.3909H502.6014V44.4991H510.3238V41.7141H502.6014V35.4067H510.3238V32.5672Z" fill="#1f1a17"/>
<path transform="matrix(1,0,0,-1,0,216)" d="M525.3917 32.5672V52.0849H528.5636V35.4067H535.6579V32.5672Z" fill="#1f1a17"/>
<path transform="matrix(1,0,0,-1,0,216)" d="M541.4746 32.5672V52.0849H544.6463V32.5672Z" fill="#1f1a17"/>
<path transform="matrix(1,0,0,-1,0,216)" d="M552.397 32.5672V52.0849H563.2914V49.3909H555.569V44.5263H563.2914V41.7413H555.569V32.5672Z" fill="#1f1a17"/>
<path transform="matrix(1,0,0,-1,0,216)" d="M569.918 32.5672V52.0849H580.8124V49.3909H573.09V44.4991H580.8124V41.7141H573.09V35.4067H580.8124V32.5672Z" fill="#1f1a17"/>
<path transform="matrix(1,0,0,-1,0,216)" d="M596.613 52.5263H599.6529V37.0497H596.613ZM596.3717 33.7958C596.3717 34.2782 596.5447 34.6878 596.886 35.0291 597.2272 35.3704 597.6369 35.5433 598.1193 35.5433 598.6063 35.5433 599.0202 35.375 599.3614 35.0382 599.6982 34.6969 599.8666 34.2828 599.8666 33.7958 599.8666 33.3136 599.6982 32.904 599.3614 32.5627 599.0202 32.2214 598.6063 32.0485 598.1193 32.0485 597.6323 32.0485 597.2182 32.2214 596.8769 32.5627 596.5401 32.904 596.3717 33.3136 596.3717 33.7958" fill="#1f1a17"/>
<path transform="matrix(1,0,0,-1,0,216)" d="M674.7301 182.4432C674.7301 182.1861 674.7163 181.9636 674.6885 181.7759 674.6607 181.5814 674.6187 181.4284 674.5564 181.3173 674.4937 181.1991 674.4172 181.1157 674.3339 181.0602 674.2434 181.0043 674.1462 180.9765 674.0351 180.9765H666.6262V158.131C666.6262 158.027 666.5981 157.9294 666.5426 157.8461 666.487 157.7628 666.3966 157.7001 666.2577 157.6517 666.1256 157.6029 665.945 157.568 665.7225 157.5334 665.4932 157.4986 665.2151 157.4779 664.8746 157.4779 664.5478 157.4779 664.27 157.4986 664.0404 157.5334 663.8111 157.568 663.6234 157.6029 663.4913 157.6517 663.3524 157.7001 663.262 157.7628 663.2065 157.8461 663.1509 157.9294 663.1231 158.027 663.1231 158.131V180.9765H655.7142C655.6028 180.9765 655.5056 181.0043 655.4151 181.0602 655.325 181.1157 655.2553 181.1991 655.1997 181.3173 655.1512 181.4284 655.1025 181.5814 655.0676 181.7759 655.033 181.9636 655.0191 182.1861 655.0191 182.4432 655.0191 182.7003 655.033 182.9296 655.0676 183.1243 655.1025 183.3259 655.1512 183.4858 655.1997 183.604 655.2553 183.729 655.325 183.8123 655.4151 183.8679 655.5056 183.9234 655.6028 183.9515 655.7142 183.9515H674.0351C674.1462 183.9515 674.2434 183.9234 674.3339 183.8679 674.4172 183.8123 674.4937 183.729 674.5564 183.604 674.6187 183.4858 674.6607 183.3259 674.6885 183.1243 674.7163 182.9296 674.7301 182.7003 674.7301 182.4432" fill="#1f1a17"/>
<path transform="matrix(1,0,0,-1,0,216)" d="M707.188 158.131C707.188 158.027 707.1602 157.9294 707.1046 157.8461 707.0491 157.7628 706.9586 157.7001 706.8195 157.6517 706.6877 157.6029 706.5139 157.568 706.3053 157.5334 706.0898 157.4986 705.8188 157.4779 705.4781 157.4779 705.1654 157.4779 704.8945 157.4986 704.6719 157.5334 704.4494 157.568 704.2757 157.6029 704.1438 157.6517 704.0117 157.7001 703.9213 157.7628 703.8658 157.8461 703.817 157.9294 703.7892 158.027 703.7892 158.131V181.0809H703.7476L694.3578 158.0338C694.3161 157.9365 694.2606 157.8532 694.184 157.7835 694.1146 157.7211 694.0032 157.6585 693.8643 157.61 693.7183 157.568 693.5516 157.5334 693.3501 157.5125 693.1553 157.4918 692.9189 157.4779 692.6479 157.4779 692.3631 157.4779 692.1198 157.4918 691.9183 157.5196 691.7097 157.5473 691.543 157.589 691.4038 157.6307 691.2717 157.6794 691.1677 157.7418 691.0911 157.8044 691.0146 157.8739 690.9661 157.9504 690.9381 158.0338L681.9585 181.0809H681.9375V158.131C681.9375 158.027 681.9097 157.9294 681.8542 157.8461 681.8057 157.7628 681.7082 157.7001 681.5693 157.6517 681.4372 157.6029 681.2634 157.568 681.0409 157.5334 680.8255 157.4986 680.5477 157.4779 680.207 157.4779 679.8804 157.4779 679.6094 157.4986 679.3937 157.5334 679.1783 157.568 679.0045 157.6029 678.8724 157.6517 678.7474 157.7001 678.657 157.7628 678.6085 157.8461 678.5597 157.9294 678.5391 158.027 678.5391 158.131V182.3666C678.5391 182.9367 678.6848 183.3398 678.9838 183.583 679.2826 183.8262 679.6162 183.9515 679.9847 183.9515H682.1045C682.5353 183.9515 682.9177 183.9095 683.2443 183.8262 683.5708 183.7497 683.856 183.6179 684.0992 183.4441 684.3424 183.2632 684.544 183.041 684.7106 182.7697 684.8705 182.4987 685.0165 182.179 685.1347 181.8108L692.7729 162.7322H692.8705L700.8146 181.7552C700.9605 182.1583 701.1272 182.5058 701.301 182.7907 701.4818 183.0756 701.6763 183.3049 701.8849 183.4719 702.0933 183.6456 702.3297 183.7638 702.5868 183.8401 702.8442 183.9166 703.1429 183.9515 703.4834 183.9515H705.7006C705.9022 183.9515 706.0966 183.9234 706.2843 183.8611 706.4651 183.7984 706.6179 183.7012 706.75 183.5762 706.8821 183.4441 706.9864 183.2842 707.063 183.0895 707.1463 182.8879 707.188 182.6515 707.188 182.3666Z" fill="#1f1a17"/>
</svg>
